<svg width="2560" height="1920" viewBox="0 0 2560 1920" fill="none" xmlns="http://www.w3.org/2000/svg">
<rect name="1" x="70" y="85" width="50" height="50" fill="#E4A3A3"/>
<rect name="73" x="1767" y="80" width="50" height="50" fill="#E4A3A3"/>
<rect name="9" x="70" y="290" width="50" height="50" fill="#E4A3A3"/>
<rect name="85" x="1767" y="285" width="50" height="50" fill="#E4A3A3"/>
<rect name="17" x="70" y="495" width="50" height="50" fill="#E4A3A3"/>
<rect name="97" x="1767" y="490" width="50" height="50" fill="#E4A3A3"/>
<rect name="25" x="70" y="700" width="50" height="50" fill="#E4A3A3"/>
<rect name="109" x="1767" y="695" width="50" height="50" fill="#E4A3A3"/>
<rect name="33" x="70" y="905" width="50" height="50" fill="#E4A3A3"/>
<rect name="121" x="1767" y="900" width="50" height="50" fill="#E4A3A3"/>
<rect name="41" x="70" y="1110" width="50" height="50" fill="#E4A3A3"/>
<rect name="133" x="1767" y="1105" width="50" height="50" fill="#E4A3A3"/>
<rect name="49" x="70" y="1315" width="50" height="50" fill="#E4A3A3"/>
<rect name="57" x="70" y="1520" width="50" height="50" fill="#E4A3A3"/>
<rect name="65" x="70" y="1730" width="50" height="50" fill="#E4A3A3"/>
<rect name="145" x="1767" y="1310" width="50" height="50" fill="#E4A3A3"/>
<rect name="157" x="1767" y="1520" width="50" height="50" fill="#E4A3A3"/>
<rect name="169" x="1767" y="1730" width="50" height="50" fill="#E4A3A3"/>
<rect name="5" x="381" y="90" width="50" height="50" fill="#E4A3A3"/>
<rect name="77" x="2078" y="85" width="50" height="50" fill="#E4A3A3"/>
<rect name="81" x="2389" y="85" width="50" height="50" fill="#E4A3A3"/>
<rect name="13" x="381" y="295" width="50" height="50" fill="#E4A3A3"/>
<rect name="89" x="2078" y="290" width="50" height="50" fill="#E4A3A3"/>
<rect name="93" x="2389" y="290" width="50" height="50" fill="#E4A3A3"/>
<rect name="21" x="381" y="500" width="50" height="50" fill="#E4A3A3"/>
<rect name="101" x="2078" y="495" width="50" height="50" fill="#E4A3A3"/>
<rect name="105" x="2389" y="495" width="50" height="50" fill="#E4A3A3"/>
<rect name="29" x="381" y="705" width="50" height="50" fill="#E4A3A3"/>
<rect name="113" x="2078" y="700" width="50" height="50" fill="#E4A3A3"/>
<rect name="117" x="2389" y="700" width="50" height="50" fill="#E4A3A3"/>
<rect name="37" x="381" y="910" width="50" height="50" fill="#E4A3A3"/>
<rect name="125" x="2078" y="905" width="50" height="50" fill="#E4A3A3"/>
<rect name="129" x="2389" y="905" width="50" height="50" fill="#E4A3A3"/>
<rect name="45" x="381" y="1115" width="50" height="50" fill="#E4A3A3"/>
<rect name="137" x="2078" y="1110" width="50" height="50" fill="#E4A3A3"/>
<rect name="141" x="2389" y="1110" width="50" height="50" fill="#E4A3A3"/>
<rect name="53" x="381" y="1320" width="50" height="50" fill="#E4A3A3"/>
<rect name="61" x="381" y="1525" width="50" height="50" fill="#E4A3A3"/>
<rect name="69" x="381" y="1735" width="50" height="50" fill="#E4A3A3"/>
<rect name="149" x="2078" y="1315" width="50" height="50" fill="#E4A3A3"/>
<rect name="161" x="2078" y="1525" width="50" height="50" fill="#E4A3A3"/>
<rect name="173" x="2078" y="1735" width="50" height="50" fill="#E4A3A3"/>
<rect name="153" x="2389" y="1315" width="50" height="50" fill="#E4A3A3"/>
<rect name="165" x="2389" y="1525" width="50" height="50" fill="#E4A3A3"/>
<rect name="177" x="2389" y="1735" width="50" height="50" fill="#E4A3A3"/>
<rect name="4" x="130" y="145" width="50" height="50" fill="#E4A3A3"/>
<rect name="76" x="1827" y="140" width="50" height="50" fill="#E4A3A3"/>
<rect name="12" x="130" y="350" width="50" height="50" fill="#E4A3A3"/>
<rect name="88" x="1827" y="345" width="50" height="50" fill="#E4A3A3"/>
<rect name="20" x="130" y="555" width="50" height="50" fill="#E4A3A3"/>
<rect name="100" x="1827" y="550" width="50" height="50" fill="#E4A3A3"/>
<rect name="28" x="130" y="760" width="50" height="50" fill="#E4A3A3"/>
<rect name="112" x="1827" y="755" width="50" height="50" fill="#E4A3A3"/>
<rect name="36" x="130" y="965" width="50" height="50" fill="#E4A3A3"/>
<rect name="124" x="1827" y="960" width="50" height="50" fill="#E4A3A3"/>
<rect name="44" x="130" y="1170" width="50" height="50" fill="#E4A3A3"/>
<rect name="136" x="1827" y="1165" width="50" height="50" fill="#E4A3A3"/>
<rect name="52" x="130" y="1375" width="50" height="50" fill="#E4A3A3"/>
<rect name="60" x="130" y="1580" width="50" height="50" fill="#E4A3A3"/>
<rect name="68" x="130" y="1790" width="50" height="50" fill="#E4A3A3"/>
<rect name="148" x="1827" y="1370" width="50" height="50" fill="#E4A3A3"/>
<rect name="160" x="1827" y="1580" width="50" height="50" fill="#E4A3A3"/>
<rect name="172" x="1827" y="1790" width="50" height="50" fill="#E4A3A3"/>
<rect name="8" x="441" y="150" width="50" height="50" fill="#E4A3A3"/>
<rect name="80" x="2138" y="145" width="50" height="50" fill="#E4A3A3"/>
<rect name="84" x="2449" y="145" width="50" height="50" fill="#E4A3A3"/>
<rect name="16" x="441" y="355" width="50" height="50" fill="#E4A3A3"/>
<rect name="92" x="2138" y="350" width="50" height="50" fill="#E4A3A3"/>
<rect name="96" x="2449" y="350" width="50" height="50" fill="#E4A3A3"/>
<rect name="24" x="441" y="560" width="50" height="50" fill="#E4A3A3"/>
<rect name="104" x="2138" y="555" width="50" height="50" fill="#E4A3A3"/>
<rect name="108" x="2449" y="555" width="50" height="50" fill="#E4A3A3"/>
<rect name="32" x="441" y="765" width="50" height="50" fill="#E4A3A3"/>
<rect name="116" x="2138" y="760" width="50" height="50" fill="#E4A3A3"/>
<rect name="120" x="2449" y="760" width="50" height="50" fill="#E4A3A3"/>
<rect name="40" x="441" y="970" width="50" height="50" fill="#E4A3A3"/>
<rect name="128" x="2138" y="965" width="50" height="50" fill="#E4A3A3"/>
<rect name="132" x="2449" y="965" width="50" height="50" fill="#E4A3A3"/>
<rect name="48" x="441" y="1175" width="50" height="50" fill="#E4A3A3"/>
<rect name="140" x="2138" y="1170" width="50" height="50" fill="#E4A3A3"/>
<rect name="144" x="2449" y="1170" width="50" height="50" fill="#E4A3A3"/>
<rect name="56" x="441" y="1380" width="50" height="50" fill="#E4A3A3"/>
<rect name="64" x="441" y="1585" width="50" height="50" fill="#E4A3A3"/>
<rect name="72" x="441" y="1795" width="50" height="50" fill="#E4A3A3"/>
<rect name="152" x="2138" y="1375" width="50" height="50" fill="#E4A3A3"/>
<rect name="164" x="2138" y="1585" width="50" height="50" fill="#E4A3A3"/>
<rect name="176" x="2138" y="1795" width="50" height="50" fill="#E4A3A3"/>
<rect name="156" x="2449" y="1375" width="50" height="50" fill="#E4A3A3"/>
<rect name="168" x="2449" y="1585" width="50" height="50" fill="#E4A3A3"/>
<rect name="180" x="2449" y="1795" width="50" height="50" fill="#E4A3A3"/>
<rect name="3" x="70" y="145" width="50" height="50" fill="#E4A3A3"/>
<rect name="75" x="1767" y="140" width="50" height="50" fill="#E4A3A3"/>
<rect name="11" x="70" y="350" width="50" height="50" fill="#E4A3A3"/>
<rect name="87" x="1767" y="345" width="50" height="50" fill="#E4A3A3"/>
<rect name="19" x="70" y="555" width="50" height="50" fill="#E4A3A3"/>
<rect name="99" x="1767" y="550" width="50" height="50" fill="#E4A3A3"/>
<rect name="27" x="70" y="760" width="50" height="50" fill="#E4A3A3"/>
<rect name="111" x="1767" y="755" width="50" height="50" fill="#E4A3A3"/>
<rect name="35" x="70" y="965" width="50" height="50" fill="#E4A3A3"/>
<rect name="123" x="1767" y="960" width="50" height="50" fill="#E4A3A3"/>
<rect name="43" x="70" y="1170" width="50" height="50" fill="#E4A3A3"/>
<rect name="135" x="1767" y="1165" width="50" height="50" fill="#E4A3A3"/>
<rect name="51" x="70" y="1375" width="50" height="50" fill="#E4A3A3"/>
<rect name="59" x="70" y="1580" width="50" height="50" fill="#E4A3A3"/>
<rect name="67" x="70" y="1790" width="50" height="50" fill="#E4A3A3"/>
<rect name="147" x="1767" y="1370" width="50" height="50" fill="#E4A3A3"/>
<rect name="159" x="1767" y="1580" width="50" height="50" fill="#E4A3A3"/>
<rect name="171" x="1767" y="1790" width="50" height="50" fill="#E4A3A3"/>
<rect name="7" x="381" y="150" width="50" height="50" fill="#E4A3A3"/>
<rect name="79" x="2078" y="145" width="50" height="50" fill="#E4A3A3"/>
<rect name="83" x="2389" y="145" width="50" height="50" fill="#E4A3A3"/>
<rect name="15" x="381" y="355" width="50" height="50" fill="#E4A3A3"/>
<rect name="91" x="2078" y="350" width="50" height="50" fill="#E4A3A3"/>
<rect name="95" x="2389" y="350" width="50" height="50" fill="#E4A3A3"/>
<rect name="23" x="381" y="560" width="50" height="50" fill="#E4A3A3"/>
<rect name="103" x="2078" y="555" width="50" height="50" fill="#E4A3A3"/>
<rect name="107" x="2389" y="555" width="50" height="50" fill="#E4A3A3"/>
<rect name="30" x="381" y="765" width="50" height="50" fill="#E4A3A3"/>
<rect name="115" x="2078" y="760" width="50" height="50" fill="#E4A3A3"/>
<rect name="119" x="2389" y="760" width="50" height="50" fill="#E4A3A3"/>
<rect name="39" x="381" y="970" width="50" height="50" fill="#E4A3A3"/>
<rect name="127" x="2078" y="965" width="50" height="50" fill="#E4A3A3"/>
<rect name="131" x="2389" y="965" width="50" height="50" fill="#E4A3A3"/>
<rect name="47" x="381" y="1175" width="50" height="50" fill="#E4A3A3"/>
<rect name="139" x="2078" y="1170" width="50" height="50" fill="#E4A3A3"/>
<rect name="143" x="2389" y="1170" width="50" height="50" fill="#E4A3A3"/>
<rect name="55" x="381" y="1380" width="50" height="50" fill="#E4A3A3"/>
<rect name="63" x="381" y="1585" width="50" height="50" fill="#E4A3A3"/>
<rect name="71" x="381" y="1795" width="50" height="50" fill="#E4A3A3"/>
<rect name="151" x="2078" y="1375" width="50" height="50" fill="#E4A3A3"/>
<rect name="163" x="2078" y="1585" width="50" height="50" fill="#E4A3A3"/>
<rect name="175" x="2078" y="1795" width="50" height="50" fill="#E4A3A3"/>
<rect name="155" x="2389" y="1375" width="50" height="50" fill="#E4A3A3"/>
<rect name="167" x="2389" y="1585" width="50" height="50" fill="#E4A3A3"/>
<rect name="179" x="2389" y="1795" width="50" height="50" fill="#E4A3A3"/>
<rect name="2" x="130" y="85" width="50" height="50" fill="#E4A3A3"/>
<rect name="74" x="1827" y="80" width="50" height="50" fill="#E4A3A3"/>
<rect name="10" x="130" y="290" width="50" height="50" fill="#E4A3A3"/>
<rect name="86" x="1827" y="285" width="50" height="50" fill="#E4A3A3"/>
<rect name="18" x="130" y="495" width="50" height="50" fill="#E4A3A3"/>
<rect name="98" x="1827" y="490" width="50" height="50" fill="#E4A3A3"/>
<rect name="26" x="130" y="700" width="50" height="50" fill="#E4A3A3"/>
<rect name="110" x="1827" y="695" width="50" height="50" fill="#E4A3A3"/>
<rect name="34" x="130" y="905" width="50" height="50" fill="#E4A3A3"/>
<rect name="122" x="1827" y="900" width="50" height="50" fill="#E4A3A3"/>
<rect name="42" x="130" y="1110" width="50" height="50" fill="#E4A3A3"/>
<rect name="134" x="1827" y="1105" width="50" height="50" fill="#E4A3A3"/>
<rect name="50" x="130" y="1315" width="50" height="50" fill="#E4A3A3"/>
<rect name="58" x="130" y="1520" width="50" height="50" fill="#E4A3A3"/>
<rect name="66" x="130" y="1730" width="50" height="50" fill="#E4A3A3"/>
<rect name="146" x="1827" y="1310" width="50" height="50" fill="#E4A3A3"/>
<rect name="158" x="1827" y="1520" width="50" height="50" fill="#E4A3A3"/>
<rect name="170" x="1827" y="1730" width="50" height="50" fill="#E4A3A3"/>
<rect name="6" x="441" y="90" width="50" height="50" fill="#E4A3A3"/>
<rect name="78" x="2138" y="85" width="50" height="50" fill="#E4A3A3"/>
<rect name="82" x="2449" y="85" width="50" height="50" fill="#E4A3A3"/>
<rect name="14" x="441" y="295" width="50" height="50" fill="#E4A3A3"/>
<rect name="90" x="2138" y="290" width="50" height="50" fill="#E4A3A3"/>
<rect name="94" x="2449" y="290" width="50" height="50" fill="#E4A3A3"/>
<rect name="22" x="441" y="500" width="50" height="50" fill="#E4A3A3"/>
<rect name="102" x="2138" y="495" width="50" height="50" fill="#E4A3A3"/>
<rect name="106" x="2449" y="495" width="50" height="50" fill="#E4A3A3"/>
<rect name="31" x="441" y="705" width="50" height="50" fill="#E4A3A3"/>
<rect name="114" x="2138" y="700" width="50" height="50" fill="#E4A3A3"/>
<rect name="118" x="2449" y="700" width="50" height="50" fill="#E4A3A3"/>
<rect name="38" x="441" y="910" width="50" height="50" fill="#E4A3A3"/>
<rect name="126" x="2138" y="905" width="50" height="50" fill="#E4A3A3"/>
<rect name="130" x="2449" y="905" width="50" height="50" fill="#E4A3A3"/>
<rect name="46" x="441" y="1115" width="50" height="50" fill="#E4A3A3"/>
<rect name="138" x="2138" y="1110" width="50" height="50" fill="#E4A3A3"/>
<rect name="142" x="2449" y="1110" width="50" height="50" fill="#E4A3A3"/>
<rect name="54" x="441" y="1320" width="50" height="50" fill="#E4A3A3"/>
<rect name="62" x="441" y="1525" width="50" height="50" fill="#E4A3A3"/>
<rect name="70" x="441" y="1735" width="50" height="50" fill="#E4A3A3"/>
<rect name="150" x="2138" y="1315" width="50" height="50" fill="#E4A3A3"/>
<rect name="162" x="2138" y="1525" width="50" height="50" fill="#E4A3A3"/>
<rect name="174" x="2138" y="1735" width="50" height="50" fill="#E4A3A3"/>
<rect name="154" x="2449" y="1315" width="50" height="50" fill="#E4A3A3"/>
<rect name="166" x="2449" y="1525" width="50" height="50" fill="#E4A3A3"/>
<rect name="178" x="2449" y="1735" width="50" height="50" fill="#E4A3A3"/>
<path id="inside" d="M585 85H1673V1845H585V85Z" fill="#E5DCDC"/>
<path id="&#228;&#185;&#166; &#230;&#158;&#182; &#229;&#140;&#186; &#229;&#159;&#159;" d="M1170.56 351.536H1182.42C1182.42 351.536 1182.26 354.968 1181.95 356.84C1179.61 388.04 1177.27 400.676 1172.59 405.356C1169.32 408.788 1165.88 409.724 1160.42 410.036C1155.43 410.348 1146.07 410.192 1136.56 409.724C1136.24 406.292 1134.84 401.612 1132.5 398.492C1142.33 399.428 1152.47 399.428 1156.21 399.428C1159.33 399.428 1161.05 399.272 1162.76 398.024C1166.2 394.904 1168.38 382.58 1170.41 353.252L1170.56 351.536ZM1100.21 282.584H1112.06V425.324H1100.21V282.584ZM1146.85 294.596L1153.72 286.796C1163.54 292.88 1176.8 302.084 1183.36 307.856L1176.02 316.904C1169.78 310.664 1156.84 301.148 1146.85 294.596ZM1044.36 351.536H1175.56V362.612H1044.36V351.536ZM1054.5 309.416H1159.8V358.868H1148.1V320.648H1054.5V309.416ZM1044.36 744.668H1179.61V755.12H1044.36V744.668ZM1106.45 729.536H1118.62V803.636H1106.45V729.536ZM1101.77 750.44L1111.13 754.496C1097.09 774.308 1071.82 791.936 1048.88 800.828C1047.17 797.864 1043.58 793.496 1041.08 791.156C1063.86 783.824 1088.98 767.756 1101.77 750.44ZM1122.83 750.284C1135.46 767.756 1160.27 782.888 1184.14 789.752C1181.64 792.092 1178.05 796.46 1176.34 799.58C1152.31 791.312 1127.2 774.308 1113.16 754.496L1122.83 750.284ZM1043.58 676.496H1104.58V686.948H1043.58V676.496ZM1099.74 676.496H1110.97C1110.97 676.496 1110.82 679.772 1110.66 681.332C1108.94 709.412 1107.23 720.488 1103.64 724.7C1100.99 727.352 1098.34 728.288 1094.44 728.6C1091.32 729.068 1085.08 729.068 1078.84 728.6C1078.68 725.636 1077.43 721.112 1075.72 718.304C1081.8 718.772 1087.26 718.928 1089.44 718.928C1091.63 718.928 1092.88 718.772 1093.97 717.368C1096.62 714.716 1098.18 704.888 1099.74 678.368V676.496ZM1068.38 660.272H1079.77C1078.21 694.904 1073.53 720.02 1047.79 733.904C1046.39 731.252 1043.11 727.196 1040.46 725.324C1063.7 713.312 1067.14 691.16 1068.38 660.272ZM1133.28 682.892V715.496H1165.57V682.892H1133.28ZM1122.36 672.596H1177.27V725.792H1122.36V672.596ZM1145.45 1064.32L1156.99 1068.22C1138.12 1103.79 1110.04 1134.52 1080.08 1154.65C1078.06 1152.31 1073.53 1147.78 1070.72 1145.6C1101.14 1127.35 1128.44 1097.4 1145.45 1064.32ZM1077.12 1083.36L1085.39 1075.87C1114.09 1093.65 1148.1 1120.33 1164.17 1139.98L1154.81 1148.72C1139.52 1129.22 1106.14 1101.61 1077.12 1083.36ZM1049.66 1047.63H1179.77V1058.86H1061.21V1181.79H1049.66V1047.63ZM1057.15 1161.51H1183.36V1172.9H1057.15V1161.51ZM1041.55 1454.18H1083.36V1465.26H1041.55V1454.18ZM1058.09 1417.83H1069.01V1522.35H1058.09V1417.83ZM1040.46 1526.88C1051.38 1522.35 1067.76 1514.71 1083.67 1506.91L1086.79 1517.36C1072.44 1524.69 1057.31 1532.49 1044.98 1538.58L1040.46 1526.88ZM1085.86 1439.2H1182.89V1449.81H1085.86V1439.2ZM1080.71 1531.09C1094.59 1527.97 1115.81 1522.35 1136.09 1516.89L1137.34 1526.88C1118.46 1532.34 1098.8 1537.95 1083.83 1542.16L1080.71 1531.09ZM1138.12 1416.12H1149.5C1148.88 1489.9 1157.93 1548.25 1171.34 1548.25C1174.31 1548.25 1175.87 1542.01 1176.34 1525.78C1178.68 1528.44 1182.26 1530.78 1184.76 1532.02C1183.04 1552.77 1179.77 1559.48 1169.94 1559.48C1145.29 1559.48 1138.74 1492.4 1138.12 1416.12ZM1155.59 1422.2L1162.45 1416.43C1169.16 1420.95 1177.58 1427.82 1181.48 1432.5L1174.46 1439.2C1170.41 1434.37 1162.45 1427.19 1155.59 1422.2ZM1169.32 1464.63L1180.08 1466.66C1169.16 1507.38 1150.28 1538.42 1122.2 1558.23C1120.49 1556.2 1116.12 1552.3 1113.62 1550.43C1141.7 1532.65 1159.8 1502.7 1169.32 1464.63ZM1099.74 1474.15V1500.36H1120.02V1474.15H1099.74ZM1090.54 1464.63H1129.54V1510.03H1090.54V1464.63Z" fill="#D5976A"/>
</svg>
