<svg width="2560" height="1440" viewBox="0 0 2560 1440" fill="none" xmlns="http://www.w3.org/2000/svg">
<rect name="Rectangle 2" x="30" y="30" width="50" height="50" fill="#E4A3A3"/>
<rect name="Rectangle 14" x="30" y="190" width="50" height="50" fill="#E4A3A3"/>
<rect name="Rectangle 26" x="30" y="350" width="50" height="50" fill="#E4A3A3"/>
<rect name="Rectangle 38" x="30" y="510" width="50" height="50" fill="#E4A3A3"/>
<rect name="Rectangle 50" x="30" y="670" width="50" height="50" fill="#E4A3A3"/>
<rect name="Rectangle 74" x="30" y="990" width="50" height="50" fill="#E4A3A3"/>
<rect name="Rectangle 62" x="30" y="830" width="50" height="50" fill="#E4A3A3"/>
<rect name="Rectangle 75" x="30" y="1150" width="50" height="50" fill="#E4A3A3"/>
<rect name="Rectangle 98" x="30" y="1310" width="50" height="50" fill="#E4A3A3"/>
<rect name="Rectangle 5" x="90" y="90" width="50" height="50" fill="#E4A3A3"/>
<rect name="Rectangle 15" x="90" y="250" width="50" height="50" fill="#E4A3A3"/>
<rect name="Rectangle 27" x="90" y="410" width="50" height="50" fill="#E4A3A3"/>
<rect name="Rectangle 39" x="90" y="570" width="50" height="50" fill="#E4A3A3"/>
<rect name="Rectangle 51" x="90" y="730" width="50" height="50" fill="#E4A3A3"/>
<rect name="Rectangle 76" x="90" y="1050" width="50" height="50" fill="#E4A3A3"/>
<rect name="Rectangle 63" x="90" y="890" width="50" height="50" fill="#E4A3A3"/>
<rect name="Rectangle 77" x="90" y="1210" width="50" height="50" fill="#E4A3A3"/>
<rect name="Rectangle 99" x="90" y="1370" width="50" height="50" fill="#E4A3A3"/>
<rect name="Rectangle 4" x="30" y="90" width="50" height="50" fill="#E4A3A3"/>
<rect name="Rectangle 16" x="30" y="250" width="50" height="50" fill="#E4A3A3"/>
<rect name="Rectangle 28" x="30" y="410" width="50" height="50" fill="#E4A3A3"/>
<rect name="Rectangle 40" x="30" y="570" width="50" height="50" fill="#E4A3A3"/>
<rect name="Rectangle 52" x="30" y="730" width="50" height="50" fill="#E4A3A3"/>
<rect name="Rectangle 78" x="30" y="1050" width="50" height="50" fill="#E4A3A3"/>
<rect name="Rectangle 64" x="30" y="890" width="50" height="50" fill="#E4A3A3"/>
<rect name="Rectangle 79" x="30" y="1210" width="50" height="50" fill="#E4A3A3"/>
<rect name="Rectangle 100" x="30" y="1370" width="50" height="50" fill="#E4A3A3"/>
<rect name="Rectangle 3" x="90" y="30" width="50" height="50" fill="#E4A3A3"/>
<rect name="Rectangle 17" x="90" y="190" width="50" height="50" fill="#E4A3A3"/>
<rect name="Rectangle 29" x="90" y="350" width="50" height="50" fill="#E4A3A3"/>
<rect name="Rectangle 41" x="90" y="510" width="50" height="50" fill="#E4A3A3"/>
<rect name="Rectangle 53" x="90" y="670" width="50" height="50" fill="#E4A3A3"/>
<rect name="Rectangle 80" x="90" y="990" width="50" height="50" fill="#E4A3A3"/>
<rect name="Rectangle 65" x="90" y="830" width="50" height="50" fill="#E4A3A3"/>
<rect name="Rectangle 81" x="90" y="1150" width="50" height="50" fill="#E4A3A3"/>
<rect name="Rectangle 101" x="90" y="1310" width="50" height="50" fill="#E4A3A3"/>
<rect name="1" x="30" y="30" width="50" height="50" fill="#E4A3A3"/>
<rect name="9" x="30" y="190" width="50" height="50" fill="#E4A3A3"/>
<rect name="Rectangle 30" x="30" y="350" width="50" height="50" fill="#E4A3A3"/>
<rect name="Rectangle 42" x="30" y="510" width="50" height="50" fill="#E4A3A3"/>
<rect name="Rectangle 54" x="30" y="670" width="50" height="50" fill="#E4A3A3"/>
<rect name="Rectangle 82" x="30" y="990" width="50" height="50" fill="#E4A3A3"/>
<rect name="Rectangle 66" x="30" y="830" width="50" height="50" fill="#E4A3A3"/>
<rect name="Rectangle 83" x="30" y="1150" width="50" height="50" fill="#E4A3A3"/>
<rect name="Rectangle 102" x="30" y="1310" width="50" height="50" fill="#E4A3A3"/>
<rect name="4" x="90" y="90" width="50" height="50" fill="#E4A3A3"/>
<rect name="12" x="90" y="250" width="50" height="50" fill="#E4A3A3"/>
<rect name="Rectangle 31" x="90" y="410" width="50" height="50" fill="#E4A3A3"/>
<rect name="Rectangle 43" x="90" y="570" width="50" height="50" fill="#E4A3A3"/>
<rect name="Rectangle 55" x="90" y="730" width="50" height="50" fill="#E4A3A3"/>
<rect name="Rectangle 84" x="90" y="1050" width="50" height="50" fill="#E4A3A3"/>
<rect name="Rectangle 67" x="90" y="890" width="50" height="50" fill="#E4A3A3"/>
<rect name="Rectangle 85" x="90" y="1210" width="50" height="50" fill="#E4A3A3"/>
<rect name="Rectangle 103" x="90" y="1370" width="50" height="50" fill="#E4A3A3"/>
<rect name="3" x="30" y="90" width="50" height="50" fill="#E4A3A3"/>
<rect name="11" x="30" y="250" width="50" height="50" fill="#E4A3A3"/>
<rect name="Rectangle 32" x="30" y="410" width="50" height="50" fill="#E4A3A3"/>
<rect name="Rectangle 44" x="30" y="570" width="50" height="50" fill="#E4A3A3"/>
<rect name="Rectangle 56" x="30" y="730" width="50" height="50" fill="#E4A3A3"/>
<rect name="Rectangle 86" x="30" y="1050" width="50" height="50" fill="#E4A3A3"/>
<rect name="Rectangle 68" x="30" y="890" width="50" height="50" fill="#E4A3A3"/>
<rect name="Rectangle 87" x="30" y="1210" width="50" height="50" fill="#E4A3A3"/>
<rect name="Rectangle 104" x="30" y="1370" width="50" height="50" fill="#E4A3A3"/>
<rect name="2" x="90" y="30" width="50" height="50" fill="#E4A3A3"/>
<rect name="10" x="90" y="190" width="50" height="50" fill="#E4A3A3"/>
<rect name="Rectangle 33" x="90" y="350" width="50" height="50" fill="#E4A3A3"/>
<rect name="Rectangle 45" x="90" y="510" width="50" height="50" fill="#E4A3A3"/>
<rect name="Rectangle 57" x="90" y="670" width="50" height="50" fill="#E4A3A3"/>
<rect name="Rectangle 88" x="90" y="990" width="50" height="50" fill="#E4A3A3"/>
<rect name="Rectangle 69" x="90" y="830" width="50" height="50" fill="#E4A3A3"/>
<rect name="Rectangle 89" x="90" y="1150" width="50" height="50" fill="#E4A3A3"/>
<rect name="Rectangle 105" x="90" y="1310" width="50" height="50" fill="#E4A3A3"/>
<rect name="5" x="190" y="30" width="50" height="50" fill="#E4A3A3"/>
<rect name="13" x="190" y="190" width="50" height="50" fill="#E4A3A3"/>
<rect name="Rectangle 34" x="190" y="350" width="50" height="50" fill="#E4A3A3"/>
<rect name="Rectangle 46" x="190" y="510" width="50" height="50" fill="#E4A3A3"/>
<rect name="Rectangle 58" x="190" y="670" width="50" height="50" fill="#E4A3A3"/>
<rect name="Rectangle 90" x="190" y="990" width="50" height="50" fill="#E4A3A3"/>
<rect name="Rectangle 70" x="190" y="830" width="50" height="50" fill="#E4A3A3"/>
<rect name="Rectangle 91" x="190" y="1150" width="50" height="50" fill="#E4A3A3"/>
<rect name="Rectangle 106" x="190" y="1310" width="50" height="50" fill="#E4A3A3"/>
<rect name="8" x="250" y="90" width="50" height="50" fill="#E4A3A3"/>
<rect name="16" x="250" y="250" width="50" height="50" fill="#E4A3A3"/>
<rect name="Rectangle 35" x="250" y="410" width="50" height="50" fill="#E4A3A3"/>
<rect name="Rectangle 47" x="250" y="570" width="50" height="50" fill="#E4A3A3"/>
<rect name="Rectangle 59" x="250" y="730" width="50" height="50" fill="#E4A3A3"/>
<rect name="Rectangle 92" x="250" y="1050" width="50" height="50" fill="#E4A3A3"/>
<rect name="Rectangle 71" x="250" y="890" width="50" height="50" fill="#E4A3A3"/>
<rect name="Rectangle 93" x="250" y="1210" width="50" height="50" fill="#E4A3A3"/>
<rect name="Rectangle 107" x="250" y="1370" width="50" height="50" fill="#E4A3A3"/>
<rect name="7" x="190" y="90" width="50" height="50" fill="#E4A3A3"/>
<rect name="15" x="190" y="250" width="50" height="50" fill="#E4A3A3"/>
<rect name="Rectangle 36" x="190" y="410" width="50" height="50" fill="#E4A3A3"/>
<rect name="Rectangle 48" x="190" y="570" width="50" height="50" fill="#E4A3A3"/>
<rect name="Rectangle 60" x="190" y="730" width="50" height="50" fill="#E4A3A3"/>
<rect name="Rectangle 94" x="190" y="1050" width="50" height="50" fill="#E4A3A3"/>
<rect name="Rectangle 72" x="190" y="890" width="50" height="50" fill="#E4A3A3"/>
<rect name="Rectangle 95" x="190" y="1210" width="50" height="50" fill="#E4A3A3"/>
<rect name="Rectangle 108" x="190" y="1370" width="50" height="50" fill="#E4A3A3"/>
<rect name="6" x="250" y="30" width="50" height="50" fill="#E4A3A3"/>
<rect name="14" x="250" y="190" width="50" height="50" fill="#E4A3A3"/>
<rect name="Rectangle 37" x="250" y="350" width="50" height="50" fill="#E4A3A3"/>
<rect name="Rectangle 49" x="250" y="510" width="50" height="50" fill="#E4A3A3"/>
<rect name="Rectangle 61" x="250" y="670" width="50" height="50" fill="#E4A3A3"/>
<rect name="Rectangle 96" x="250" y="990" width="50" height="50" fill="#E4A3A3"/>
<rect name="Rectangle 73" x="250" y="830" width="50" height="50" fill="#E4A3A3"/>
<rect name="Rectangle 97" x="250" y="1150" width="50" height="50" fill="#E4A3A3"/>
<rect name="Rectangle 109" x="250" y="1310" width="50" height="50" fill="#E4A3A3"/>
</svg>
